<mxfile host="Electron" agent="Mozilla/5.0 (X11; Linux x86_64) AppleWebKit/537.36 (KHTML, like Gecko) draw.io/26.0.9 Chrome/128.0.6613.186 Electron/32.2.5 Safari/537.36" version="26.0.9">
  <diagram name="Page-1" id="nnvEIHW3Z4vWF1LjfkwZ">
    <mxGraphModel dx="961" dy="810" grid="1" gridSize="10" guides="1" tooltips="1" connect="1" arrows="1" fold="1" page="1" pageScale="1" pageWidth="850" pageHeight="1100" math="0" shadow="0">
      <root>
        <mxCell id="0" />
        <mxCell id="1" parent="0" />
        <mxCell id="NkV01MRkD-zcOsepxfJR-2" value="" style="rounded=0;whiteSpace=wrap;html=1;fillColor=light-dark(#D4E1F5,var(--ge-dark-color, #121212));" parent="1" vertex="1">
          <mxGeometry x="20" y="400" width="810" height="300" as="geometry" />
        </mxCell>
        <mxCell id="NkV01MRkD-zcOsepxfJR-1" value="" style="rounded=0;whiteSpace=wrap;html=1;fillColor=light-dark(#D4E1F5,var(--ge-dark-color, #121212));" parent="1" vertex="1">
          <mxGeometry x="20" y="60" width="810" height="300" as="geometry" />
        </mxCell>
        <mxCell id="FR4YwdjWuDr9_sK9Jnh4-16" value="" style="rounded=0;whiteSpace=wrap;html=1;fillColor=light-dark(#99FF99,var(--ge-dark-color, #121212));" parent="1" vertex="1">
          <mxGeometry x="410" y="440" width="200" height="140" as="geometry" />
        </mxCell>
        <mxCell id="_sJffcc7cZwXCYkYl67q-33" value="" style="whiteSpace=wrap;html=1;dashed=1;fillColor=light-dark(#FFF2CC,var(--ge-dark-color, #121212));" parent="1" vertex="1">
          <mxGeometry x="40" y="572.5" width="120" height="115" as="geometry" />
        </mxCell>
        <mxCell id="_sJffcc7cZwXCYkYl67q-14" style="edgeStyle=orthogonalEdgeStyle;rounded=0;orthogonalLoop=1;jettySize=auto;html=1;exitX=1;exitY=0.5;exitDx=0;exitDy=0;entryX=0;entryY=0.5;entryDx=0;entryDy=0;" parent="1" source="_sJffcc7cZwXCYkYl67q-1" target="_sJffcc7cZwXCYkYl67q-3" edge="1">
          <mxGeometry relative="1" as="geometry" />
        </mxCell>
        <mxCell id="_sJffcc7cZwXCYkYl67q-1" value="CIS Controls&lt;div&gt;Catalog&lt;/div&gt;" style="whiteSpace=wrap;html=1;aspect=fixed;fillColor=light-dark(#66B2FF,var(--ge-dark-color, #121212));" parent="1" vertex="1">
          <mxGeometry x="40" y="120" width="80" height="80" as="geometry" />
        </mxCell>
        <mxCell id="NkV01MRkD-zcOsepxfJR-4" style="edgeStyle=orthogonalEdgeStyle;rounded=0;orthogonalLoop=1;jettySize=auto;html=1;exitX=1;exitY=0.5;exitDx=0;exitDy=0;entryX=0;entryY=0.5;entryDx=0;entryDy=0;" parent="1" source="_sJffcc7cZwXCYkYl67q-3" target="_sJffcc7cZwXCYkYl67q-8" edge="1">
          <mxGeometry relative="1" as="geometry" />
        </mxCell>
        <mxCell id="NkV01MRkD-zcOsepxfJR-5" style="edgeStyle=orthogonalEdgeStyle;rounded=0;orthogonalLoop=1;jettySize=auto;html=1;exitX=1;exitY=0.5;exitDx=0;exitDy=0;entryX=0.5;entryY=0;entryDx=0;entryDy=0;" parent="1" source="_sJffcc7cZwXCYkYl67q-3" target="_sJffcc7cZwXCYkYl67q-6" edge="1">
          <mxGeometry relative="1" as="geometry" />
        </mxCell>
        <mxCell id="NkV01MRkD-zcOsepxfJR-9" style="edgeStyle=orthogonalEdgeStyle;rounded=0;orthogonalLoop=1;jettySize=auto;html=1;exitX=1;exitY=0.5;exitDx=0;exitDy=0;entryX=0.25;entryY=0;entryDx=0;entryDy=0;" parent="1" source="_sJffcc7cZwXCYkYl67q-3" target="FR4YwdjWuDr9_sK9Jnh4-16" edge="1">
          <mxGeometry relative="1" as="geometry" />
        </mxCell>
        <mxCell id="_sJffcc7cZwXCYkYl67q-3" value="CIS Controls&lt;div&gt;Profile&lt;/div&gt;&lt;div&gt;(2 controls)&lt;/div&gt;" style="whiteSpace=wrap;html=1;aspect=fixed;fillColor=light-dark(#66B2FF,var(--ge-dark-color, #121212));" parent="1" vertex="1">
          <mxGeometry x="280" y="120" width="80" height="80" as="geometry" />
        </mxCell>
        <mxCell id="_sJffcc7cZwXCYkYl67q-4" value="Git Repo" style="text;html=1;align=left;verticalAlign=middle;whiteSpace=wrap;rounded=0;" parent="1" vertex="1">
          <mxGeometry x="30" y="90" width="60" height="30" as="geometry" />
        </mxCell>
        <mxCell id="_sJffcc7cZwXCYkYl67q-5" value="Git Repo" style="text;html=1;align=left;verticalAlign=middle;whiteSpace=wrap;rounded=0;" parent="1" vertex="1">
          <mxGeometry x="270" y="90" width="60" height="30" as="geometry" />
        </mxCell>
        <mxCell id="NkV01MRkD-zcOsepxfJR-7" style="edgeStyle=orthogonalEdgeStyle;rounded=0;orthogonalLoop=1;jettySize=auto;html=1;exitX=0.5;exitY=1;exitDx=0;exitDy=0;entryX=0.75;entryY=0;entryDx=0;entryDy=0;" parent="1" source="_sJffcc7cZwXCYkYl67q-6" target="FR4YwdjWuDr9_sK9Jnh4-16" edge="1">
          <mxGeometry relative="1" as="geometry" />
        </mxCell>
        <mxCell id="NkV01MRkD-zcOsepxfJR-16" style="edgeStyle=orthogonalEdgeStyle;rounded=0;orthogonalLoop=1;jettySize=auto;html=1;exitX=0.5;exitY=1;exitDx=0;exitDy=0;entryX=0.5;entryY=1;entryDx=0;entryDy=0;" parent="1" source="_sJffcc7cZwXCYkYl67q-6" target="_sJffcc7cZwXCYkYl67q-8" edge="1">
          <mxGeometry relative="1" as="geometry" />
        </mxCell>
        <mxCell id="_sJffcc7cZwXCYkYl67q-6" value="RHEL9&lt;div&gt;Component Definition&lt;/div&gt;" style="whiteSpace=wrap;html=1;aspect=fixed;fillColor=light-dark(#FFCCFF,var(--ge-dark-color, #121212));" parent="1" vertex="1">
          <mxGeometry x="520" y="210" width="80" height="80" as="geometry" />
        </mxCell>
        <mxCell id="_sJffcc7cZwXCYkYl67q-7" value="Git Repo" style="text;html=1;align=left;verticalAlign=middle;whiteSpace=wrap;rounded=0;" parent="1" vertex="1">
          <mxGeometry x="400" y="410" width="60" height="30" as="geometry" />
        </mxCell>
        <mxCell id="_sJffcc7cZwXCYkYl67q-8" value="RHEL9&lt;div&gt;SPP&lt;/div&gt;" style="whiteSpace=wrap;html=1;aspect=fixed;fillColor=light-dark(#FFCCFF,var(--ge-dark-color, #121212));" parent="1" vertex="1">
          <mxGeometry x="670" y="120" width="80" height="80" as="geometry" />
        </mxCell>
        <mxCell id="_sJffcc7cZwXCYkYl67q-9" value="Git Repo" style="text;html=1;align=left;verticalAlign=middle;whiteSpace=wrap;rounded=0;" parent="1" vertex="1">
          <mxGeometry x="660" y="90" width="60" height="30" as="geometry" />
        </mxCell>
        <mxCell id="7EM8am9Ce5WszBlHy6cI-2" style="edgeStyle=orthogonalEdgeStyle;rounded=0;orthogonalLoop=1;jettySize=auto;html=1;exitX=1;exitY=0.5;exitDx=0;exitDy=0;entryX=0;entryY=0.5;entryDx=0;entryDy=0;" parent="1" source="_sJffcc7cZwXCYkYl67q-10" target="FR4YwdjWuDr9_sK9Jnh4-16" edge="1">
          <mxGeometry relative="1" as="geometry" />
        </mxCell>
        <mxCell id="_sJffcc7cZwXCYkYl67q-10" value="RHEL9&lt;div&gt;XCCDF&lt;/div&gt;" style="whiteSpace=wrap;html=1;aspect=fixed;fillColor=light-dark(#FFF2CC,var(--ge-dark-color, #121212));" parent="1" vertex="1">
          <mxGeometry x="60" y="470" width="80" height="80" as="geometry" />
        </mxCell>
        <mxCell id="_sJffcc7cZwXCYkYl67q-11" value="Evidence Locker" style="text;html=1;align=left;verticalAlign=middle;whiteSpace=wrap;rounded=0;" parent="1" vertex="1">
          <mxGeometry x="40" y="440" width="100" height="30" as="geometry" />
        </mxCell>
        <mxCell id="_sJffcc7cZwXCYkYl67q-24" style="edgeStyle=orthogonalEdgeStyle;rounded=0;orthogonalLoop=1;jettySize=auto;html=1;exitX=0.5;exitY=0;exitDx=0;exitDy=0;entryX=0.5;entryY=1;entryDx=0;entryDy=0;" parent="1" source="_sJffcc7cZwXCYkYl67q-22" target="_sJffcc7cZwXCYkYl67q-10" edge="1">
          <mxGeometry relative="1" as="geometry" />
        </mxCell>
        <mxCell id="_sJffcc7cZwXCYkYl67q-22" value="" style="image;html=1;image=img/lib/clip_art/computers/Secure_System_128x128.png" parent="1" vertex="1">
          <mxGeometry x="60" y="590" width="80" height="80" as="geometry" />
        </mxCell>
        <mxCell id="_sJffcc7cZwXCYkYl67q-25" value="Secure Server" style="text;html=1;align=left;verticalAlign=middle;whiteSpace=wrap;rounded=0;" parent="1" vertex="1">
          <mxGeometry x="170" y="560" width="90" height="30" as="geometry" />
        </mxCell>
        <mxCell id="_sJffcc7cZwXCYkYl67q-26" value="(subject of audit)" style="text;html=1;align=left;verticalAlign=middle;whiteSpace=wrap;rounded=0;" parent="1" vertex="1">
          <mxGeometry x="170" y="580" width="110" height="30" as="geometry" />
        </mxCell>
        <mxCell id="_sJffcc7cZwXCYkYl67q-34" value="End-to-End Demo - CNCF OSCAL Compass" style="text;html=1;align=center;verticalAlign=middle;whiteSpace=wrap;rounded=0;fontStyle=1;fontSize=21;" parent="1" vertex="1">
          <mxGeometry x="40" y="10" width="480" height="30" as="geometry" />
        </mxCell>
        <mxCell id="FR4YwdjWuDr9_sK9Jnh4-12" value="Assessment Results:&lt;div&gt;observations only&lt;/div&gt;" style="text;html=1;align=left;verticalAlign=middle;whiteSpace=wrap;rounded=0;" parent="1" vertex="1">
          <mxGeometry x="210" y="480" width="140" height="30" as="geometry" />
        </mxCell>
        <mxCell id="FR4YwdjWuDr9_sK9Jnh4-15" value="Pipeline to:&lt;div&gt;- aggregate results&lt;/div&gt;&lt;div&gt;- map checks, rules, controls&lt;/div&gt;&lt;div&gt;- produce posture as markdown&lt;/div&gt;" style="text;html=1;align=left;verticalAlign=middle;whiteSpace=wrap;rounded=0;" parent="1" vertex="1">
          <mxGeometry x="425" y="480" width="180" height="80" as="geometry" />
        </mxCell>
        <mxCell id="HgmPG7ZFx5860i2Mmg5O-22" value="Catalog:&lt;div&gt;all possible controls&lt;/div&gt;" style="text;html=1;align=left;verticalAlign=middle;whiteSpace=wrap;rounded=0;" parent="1" vertex="1">
          <mxGeometry x="140" y="130" width="120" height="30" as="geometry" />
        </mxCell>
        <mxCell id="HgmPG7ZFx5860i2Mmg5O-23" value="Git Repo" style="text;html=1;align=left;verticalAlign=middle;whiteSpace=wrap;rounded=0;" parent="1" vertex="1">
          <mxGeometry x="500" y="180" width="60" height="30" as="geometry" />
        </mxCell>
        <mxCell id="HgmPG7ZFx5860i2Mmg5O-24" value="Resolved Profile:&lt;div&gt;selected controls only&lt;/div&gt;" style="text;html=1;align=left;verticalAlign=middle;whiteSpace=wrap;rounded=0;" parent="1" vertex="1">
          <mxGeometry x="380" y="130" width="120" height="30" as="geometry" />
        </mxCell>
        <mxCell id="HgmPG7ZFx5860i2Mmg5O-29" value="Compnent Definition:&lt;div&gt;technology specific rules &amp;amp; checks&lt;/div&gt;" style="text;html=1;align=left;verticalAlign=middle;whiteSpace=wrap;rounded=0;" parent="1" vertex="1">
          <mxGeometry x="570" y="320" width="190" height="30" as="geometry" />
        </mxCell>
        <mxCell id="HgmPG7ZFx5860i2Mmg5O-31" value="Compliance Posture" style="text;html=1;align=center;verticalAlign=middle;whiteSpace=wrap;rounded=0;" parent="1" vertex="1">
          <mxGeometry x="430" y="440" width="140" height="30" as="geometry" />
        </mxCell>
        <mxCell id="NkV01MRkD-zcOsepxfJR-12" style="edgeStyle=orthogonalEdgeStyle;rounded=0;orthogonalLoop=1;jettySize=auto;html=1;exitX=0;exitY=0.5;exitDx=0;exitDy=0;" parent="1" source="Dz6giT6QmdXinou7oSLN-5" target="FR4YwdjWuDr9_sK9Jnh4-16" edge="1">
          <mxGeometry relative="1" as="geometry" />
        </mxCell>
        <mxCell id="Dz6giT6QmdXinou7oSLN-5" value="CIS controls to NIST 800-53 Mapping" style="whiteSpace=wrap;html=1;aspect=fixed;fillColor=light-dark(#CC99FF,var(--ge-dark-color, #121212));" parent="1" vertex="1">
          <mxGeometry x="710" y="470" width="80" height="80" as="geometry" />
        </mxCell>
        <mxCell id="Dz6giT6QmdXinou7oSLN-7" value="Mapping" style="text;html=1;align=left;verticalAlign=middle;whiteSpace=wrap;rounded=0;" parent="1" vertex="1">
          <mxGeometry x="640" y="480" width="140" height="30" as="geometry" />
        </mxCell>
        <mxCell id="NkV01MRkD-zcOsepxfJR-13" value="Git Repo" style="text;html=1;align=left;verticalAlign=middle;whiteSpace=wrap;rounded=0;" parent="1" vertex="1">
          <mxGeometry x="700" y="440" width="60" height="30" as="geometry" />
        </mxCell>
        <mxCell id="NkV01MRkD-zcOsepxfJR-17" value="" style="whiteSpace=wrap;html=1;dashed=1;fillColor=#bac8d3;glass=1;opacity=50;strokeColor=#23445d;" parent="1" vertex="1">
          <mxGeometry x="630" y="440" width="180" height="140" as="geometry" />
        </mxCell>
        <mxCell id="NkV01MRkD-zcOsepxfJR-20" value="Future: results re-usability for other compliance programs" style="text;html=1;align=left;verticalAlign=middle;whiteSpace=wrap;rounded=0;" parent="1" vertex="1">
          <mxGeometry x="630" y="590" width="160" height="30" as="geometry" />
        </mxCell>
        <mxCell id="NkV01MRkD-zcOsepxfJR-23" value="Policy as Code" style="text;html=1;align=center;verticalAlign=middle;whiteSpace=wrap;rounded=0;fontStyle=1" parent="1" vertex="1">
          <mxGeometry x="360" y="640" width="50" height="30" as="geometry" />
        </mxCell>
        <mxCell id="NkV01MRkD-zcOsepxfJR-24" value="Compliance as Code" style="text;html=1;align=center;verticalAlign=middle;whiteSpace=wrap;rounded=0;fontStyle=1" parent="1" vertex="1">
          <mxGeometry x="195" y="260" width="60" height="30" as="geometry" />
        </mxCell>
      </root>
    </mxGraphModel>
  </diagram>
</mxfile>
